<svg width="1200" height="600" xmlns="http://www.w3.org/2000/svg">
  <!-- خلفية متدرجة -->
  <defs>
    <linearGradient id="grad1" x1="0%" y1="0%" x2="100%" y2="100%">
      <stop offset="0%" style="stop-color:#0056b3;stop-opacity:1" />
      <stop offset="100%" style="stop-color:#00008B;stop-opacity:1" />
    </linearGradient>
  </defs>
  
  <!-- مستطيل الخلفية -->
  <rect width="100%" height="100%" fill="url(#grad1)" />
  
  <!-- أشكال زخرفية -->
  <g opacity="0.1" fill="#FFFFFF">
    <!-- دوائر -->
    <circle cx="100" cy="100" r="50" />
    <circle cx="1100" cy="500" r="70" />
    <circle cx="300" cy="400" r="40" />
    <circle cx="900" cy="200" r="60" />
    
    <!-- مثلثات -->
    <polygon points="500,50 450,150 550,150" />
    <polygon points="700,450 650,550 750,550" />
    
    <!-- خطوط متقاطعة -->
    <line x1="0" y1="300" x2="1200" y2="300" stroke="#FFFFFF" stroke-width="2" />
    <line x1="600" y1="0" x2="600" y2="600" stroke="#FFFFFF" stroke-width="2" />
  </g>
  
  <!-- رموز تعليمية -->
  <g fill="#FFFFFF" opacity="0.2">
    <!-- كتاب -->
    <path d="M200,250 h100 v-80 h-100 v80 m0,-40 h100" stroke="#FFFFFF" stroke-width="3" fill="none" />
    
    <!-- قلم -->
    <path d="M900,250 l40,-40 l10,10 l-40,40 z m-5,5 l-15,5 l5,-15 z" />
    
    <!-- شهادة -->
    <path d="M500,400 h200 v-100 h-200 v100 m0,-20 h200" stroke="#FFFFFF" stroke-width="3" fill="none" />
    <circle cx="600" cy="350" r="15" fill="#FFFFFF" />
  </g>
</svg>